<?xml version="1.0" standalone="no"?>
<!DOCTYPE svg PUBLIC "-//W3C//DTD SVG 20010904//EN"
 "http://www.w3.org/TR/2001/REC-SVG-20010904/DTD/svg10.dtd">
<svg version="1.0" xmlns="http://www.w3.org/2000/svg"
 width="512.000000pt" height="512.000000pt" viewBox="0 0 512.000000 512.000000"
 preserveAspectRatio="xMidYMid meet">

<g transform="translate(0.000000,512.000000) scale(0.100000,-0.100000)"
fill="#000000" stroke="none">
<path d="M0 2560 l0 -2560 2560 0 2560 0 0 2560 0 2560 -2560 0 -2560 0 0
-2560z m2350 2023 l0 -218 213 -1 c233 0 326 -12 526 -65 266 -70 513 -196
730 -369 105 -84 270 -251 342 -345 362 -473 497 -1069 378 -1658 -26 -129
-85 -308 -142 -430 -81 -173 -159 -291 -333 -504 l-27 -33 218 0 c119 0 215
-4 213 -8 -1 -5 -120 -149 -263 -320 l-260 -312 -1439 0 c-1149 0 -1436 3
-1429 13 6 6 72 95 148 196 l138 184 -24 19 c-345 275 -573 593 -700 980 -71
215 -99 399 -99 643 1 315 60 579 195 862 133 278 313 507 558 705 l97 79 0
185 0 185 -151 202 c-84 111 -156 208 -162 215 -7 9 120 12 632 12 l641 0 0
-217z"/>
<path d="M2373 4153 l-23 -4 0 -1595 0 -1594 694 0 694 0 94 93 c257 254 437
588 509 943 30 152 37 434 15 597 -115 825 -762 1456 -1596 1557 -82 10 -342
12 -387 3z m871 -362 c72 -33 246 -137 246 -146 0 -2 -51 -30 -112 -62 -62
-33 -152 -85 -199 -115 l-86 -56 -6 63 c-7 74 -37 164 -73 218 -14 21 -24 40
-22 42 9 9 154 94 162 94 4 1 45 -16 90 -38z"/>
<path d="M1293 3648 c-249 -241 -435 -582 -510 -937 -25 -116 -27 -145 -28
-361 0 -206 3 -249 23 -348 58 -287 178 -547 360 -782 67 -87 226 -250 243
-250 5 0 9 537 9 1375 0 998 -3 1375 -11 1375 -6 0 -45 -33 -86 -72z"/>
</g>
</svg>
